<mxfile host="app.diagrams.net" agent="Mozilla/5.0 (Windows NT 10.0; Win64; x64) AppleWebKit/537.36 (KHTML, like Gecko) Chrome/128.0.0.0 Safari/537.36" version="24.7.13">
  <diagram name="Página-1" id="yL1Z5vSQ6vkxQhidfa4W">
    <mxGraphModel dx="3571" dy="817" grid="1" gridSize="10" guides="1" tooltips="1" connect="1" arrows="1" fold="1" page="1" pageScale="1" pageWidth="827" pageHeight="1169" math="0" shadow="0">
      <root>
        <mxCell id="0" />
        <mxCell id="1" parent="0" />
        <mxCell id="zMIq4uqTZYRZhNaHx9U6-1" value="INGREDIENTES" style="swimlane;childLayout=stackLayout;horizontal=1;startSize=50;horizontalStack=0;rounded=1;fontSize=14;fontStyle=0;strokeWidth=2;resizeParent=0;resizeLast=1;shadow=0;dashed=0;align=center;arcSize=4;whiteSpace=wrap;html=1;" parent="1" vertex="1">
          <mxGeometry x="30" y="100" width="160" height="120" as="geometry" />
        </mxCell>
        <mxCell id="zMIq4uqTZYRZhNaHx9U6-2" value="#id&lt;div&gt;*nombre&lt;/div&gt;" style="align=left;strokeColor=none;fillColor=none;spacingLeft=4;fontSize=12;verticalAlign=top;resizable=0;rotatable=0;part=1;html=1;" parent="zMIq4uqTZYRZhNaHx9U6-1" vertex="1">
          <mxGeometry y="50" width="160" height="70" as="geometry" />
        </mxCell>
        <mxCell id="zMIq4uqTZYRZhNaHx9U6-3" value="TUTORIALES" style="swimlane;childLayout=stackLayout;horizontal=1;startSize=50;horizontalStack=0;rounded=1;fontSize=14;fontStyle=0;strokeWidth=2;resizeParent=0;resizeLast=1;shadow=0;dashed=0;align=center;arcSize=4;whiteSpace=wrap;html=1;" parent="1" vertex="1">
          <mxGeometry x="780" y="300" width="160" height="210" as="geometry" />
        </mxCell>
        <mxCell id="zMIq4uqTZYRZhNaHx9U6-4" value="#id&lt;div&gt;*id_plato&lt;/div&gt;&lt;div&gt;*id_video&lt;/div&gt;&lt;div&gt;*recomendado&lt;/div&gt;&lt;div&gt;*categoría&lt;/div&gt;&lt;div&gt;*nivel&lt;/div&gt;&lt;div&gt;*numero_likes&lt;/div&gt;&lt;div&gt;*descripcion&lt;/div&gt;&lt;div&gt;*fecha_subida&lt;/div&gt;" style="align=left;strokeColor=none;fillColor=none;spacingLeft=4;fontSize=12;verticalAlign=top;resizable=0;rotatable=0;part=1;html=1;" parent="zMIq4uqTZYRZhNaHx9U6-3" vertex="1">
          <mxGeometry y="50" width="160" height="160" as="geometry" />
        </mxCell>
        <mxCell id="zMIq4uqTZYRZhNaHx9U6-5" value="PLATOS" style="swimlane;childLayout=stackLayout;horizontal=1;startSize=50;horizontalStack=0;rounded=1;fontSize=14;fontStyle=0;strokeWidth=2;resizeParent=0;resizeLast=1;shadow=0;dashed=0;align=center;arcSize=4;whiteSpace=wrap;html=1;" parent="1" vertex="1">
          <mxGeometry x="640" y="110" width="160" height="120" as="geometry" />
        </mxCell>
        <mxCell id="zMIq4uqTZYRZhNaHx9U6-6" value="#id&lt;div&gt;*nombre&lt;/div&gt;&lt;div&gt;&lt;br&gt;&lt;/div&gt;" style="align=left;strokeColor=none;fillColor=none;spacingLeft=4;fontSize=12;verticalAlign=top;resizable=0;rotatable=0;part=1;html=1;" parent="zMIq4uqTZYRZhNaHx9U6-5" vertex="1">
          <mxGeometry y="50" width="160" height="70" as="geometry" />
        </mxCell>
        <mxCell id="zMIq4uqTZYRZhNaHx9U6-7" value="PLATOSXINGREDIENTES" style="swimlane;childLayout=stackLayout;horizontal=1;startSize=50;horizontalStack=0;rounded=1;fontSize=14;fontStyle=0;strokeWidth=2;resizeParent=0;resizeLast=1;shadow=0;dashed=0;align=center;arcSize=4;whiteSpace=wrap;html=1;" parent="1" vertex="1">
          <mxGeometry x="370" y="100" width="180" height="120" as="geometry" />
        </mxCell>
        <mxCell id="zMIq4uqTZYRZhNaHx9U6-35" value="*cantidad_ingrediente" style="text;html=1;align=center;verticalAlign=middle;resizable=0;points=[];autosize=1;strokeColor=none;fillColor=none;" parent="zMIq4uqTZYRZhNaHx9U6-7" vertex="1">
          <mxGeometry y="50" width="180" height="70" as="geometry" />
        </mxCell>
        <mxCell id="zMIq4uqTZYRZhNaHx9U6-10" value="USUARIO" style="swimlane;childLayout=stackLayout;horizontal=1;startSize=50;horizontalStack=0;rounded=1;fontSize=14;fontStyle=0;strokeWidth=2;resizeParent=0;resizeLast=1;shadow=0;dashed=0;align=center;arcSize=4;whiteSpace=wrap;html=1;" parent="1" vertex="1">
          <mxGeometry x="30" y="270" width="160" height="160" as="geometry" />
        </mxCell>
        <mxCell id="zMIq4uqTZYRZhNaHx9U6-11" value="#id&lt;div&gt;*nombre&lt;/div&gt;&lt;div&gt;*correo&lt;/div&gt;&lt;div&gt;*notificaciones&lt;/div&gt;&lt;div&gt;*id_idioma&lt;/div&gt;&lt;div&gt;&lt;br&gt;&lt;/div&gt;" style="align=left;strokeColor=none;fillColor=none;spacingLeft=4;fontSize=12;verticalAlign=top;resizable=0;rotatable=0;part=1;html=1;" parent="zMIq4uqTZYRZhNaHx9U6-10" vertex="1">
          <mxGeometry y="50" width="160" height="110" as="geometry" />
        </mxCell>
        <mxCell id="zMIq4uqTZYRZhNaHx9U6-14" value="VIDEO" style="swimlane;childLayout=stackLayout;horizontal=1;startSize=50;horizontalStack=0;rounded=1;fontSize=14;fontStyle=0;strokeWidth=2;resizeParent=0;resizeLast=1;shadow=0;dashed=0;align=center;arcSize=4;whiteSpace=wrap;html=1;" parent="1" vertex="1">
          <mxGeometry x="1090" y="290" width="160" height="120" as="geometry" />
        </mxCell>
        <mxCell id="zMIq4uqTZYRZhNaHx9U6-15" value="#id&lt;div&gt;*link&lt;/div&gt;&lt;div&gt;*nombre&lt;/div&gt;&lt;div&gt;*descripcion&lt;/div&gt;" style="align=left;strokeColor=none;fillColor=none;spacingLeft=4;fontSize=12;verticalAlign=top;resizable=0;rotatable=0;part=1;html=1;" parent="zMIq4uqTZYRZhNaHx9U6-14" vertex="1">
          <mxGeometry y="50" width="160" height="70" as="geometry" />
        </mxCell>
        <mxCell id="zMIq4uqTZYRZhNaHx9U6-16" value="COMENTARIOS" style="swimlane;childLayout=stackLayout;horizontal=1;startSize=50;horizontalStack=0;rounded=1;fontSize=14;fontStyle=0;strokeWidth=2;resizeParent=0;resizeLast=1;shadow=0;dashed=0;align=center;arcSize=4;whiteSpace=wrap;html=1;" parent="1" vertex="1">
          <mxGeometry x="360" y="530" width="160" height="140" as="geometry" />
        </mxCell>
        <mxCell id="zMIq4uqTZYRZhNaHx9U6-17" value="#id&lt;div&gt;*id_usuario&lt;/div&gt;&lt;div&gt;*texto&lt;/div&gt;&lt;div&gt;*calificacion&lt;/div&gt;&lt;div&gt;*id_tutorial&lt;/div&gt;" style="align=left;strokeColor=none;fillColor=none;spacingLeft=4;fontSize=12;verticalAlign=top;resizable=0;rotatable=0;part=1;html=1;" parent="zMIq4uqTZYRZhNaHx9U6-16" vertex="1">
          <mxGeometry y="50" width="160" height="90" as="geometry" />
        </mxCell>
        <mxCell id="zMIq4uqTZYRZhNaHx9U6-20" value="IDIOMAS" style="swimlane;childLayout=stackLayout;horizontal=1;startSize=50;horizontalStack=0;rounded=1;fontSize=14;fontStyle=0;strokeWidth=2;resizeParent=0;resizeLast=1;shadow=0;dashed=0;align=center;arcSize=4;whiteSpace=wrap;html=1;" parent="1" vertex="1">
          <mxGeometry x="-290" y="280" width="160" height="120" as="geometry" />
        </mxCell>
        <mxCell id="zMIq4uqTZYRZhNaHx9U6-21" value="*id&lt;div&gt;*nombre&lt;/div&gt;" style="align=left;strokeColor=none;fillColor=none;spacingLeft=4;fontSize=12;verticalAlign=top;resizable=0;rotatable=0;part=1;html=1;" parent="zMIq4uqTZYRZhNaHx9U6-20" vertex="1">
          <mxGeometry y="50" width="160" height="70" as="geometry" />
        </mxCell>
        <mxCell id="zMIq4uqTZYRZhNaHx9U6-22" value="" style="edgeStyle=entityRelationEdgeStyle;fontSize=12;html=1;endArrow=ERmandOne;rounded=0;entryX=1;entryY=0.25;entryDx=0;entryDy=0;" parent="1" source="zMIq4uqTZYRZhNaHx9U6-11" target="zMIq4uqTZYRZhNaHx9U6-21" edge="1">
          <mxGeometry width="100" height="100" relative="1" as="geometry">
            <mxPoint x="-120" y="400" as="sourcePoint" />
            <mxPoint x="-60" y="270" as="targetPoint" />
          </mxGeometry>
        </mxCell>
        <mxCell id="zMIq4uqTZYRZhNaHx9U6-25" value="" style="edgeStyle=entityRelationEdgeStyle;fontSize=12;html=1;endArrow=ERmandOne;rounded=0;" parent="1" source="zMIq4uqTZYRZhNaHx9U6-4" target="zMIq4uqTZYRZhNaHx9U6-15" edge="1">
          <mxGeometry width="100" height="100" relative="1" as="geometry">
            <mxPoint x="1140" y="577" as="sourcePoint" />
            <mxPoint x="980" y="550" as="targetPoint" />
          </mxGeometry>
        </mxCell>
        <mxCell id="zMIq4uqTZYRZhNaHx9U6-26" value="" style="edgeStyle=entityRelationEdgeStyle;fontSize=12;html=1;endArrow=ERoneToMany;rounded=0;exitX=1.021;exitY=0.386;exitDx=0;exitDy=0;exitPerimeter=0;" parent="1" source="zMIq4uqTZYRZhNaHx9U6-11" target="zMIq4uqTZYRZhNaHx9U6-16" edge="1">
          <mxGeometry width="100" height="100" relative="1" as="geometry">
            <mxPoint x="150" y="590" as="sourcePoint" />
            <mxPoint x="250" y="490" as="targetPoint" />
          </mxGeometry>
        </mxCell>
        <mxCell id="zMIq4uqTZYRZhNaHx9U6-28" value="" style="edgeStyle=entityRelationEdgeStyle;fontSize=12;html=1;endArrow=ERoneToMany;rounded=0;" parent="1" source="zMIq4uqTZYRZhNaHx9U6-4" target="zMIq4uqTZYRZhNaHx9U6-17" edge="1">
          <mxGeometry width="100" height="100" relative="1" as="geometry">
            <mxPoint x="690" y="590" as="sourcePoint" />
            <mxPoint x="790" y="490" as="targetPoint" />
          </mxGeometry>
        </mxCell>
        <mxCell id="zMIq4uqTZYRZhNaHx9U6-29" value="" style="edgeStyle=entityRelationEdgeStyle;fontSize=12;html=1;endArrow=ERmany;rounded=0;" parent="1" source="zMIq4uqTZYRZhNaHx9U6-1" target="zMIq4uqTZYRZhNaHx9U6-7" edge="1">
          <mxGeometry width="100" height="100" relative="1" as="geometry">
            <mxPoint x="210" y="190" as="sourcePoint" />
            <mxPoint x="320" y="90" as="targetPoint" />
          </mxGeometry>
        </mxCell>
        <mxCell id="zMIq4uqTZYRZhNaHx9U6-30" value="" style="edgeStyle=entityRelationEdgeStyle;fontSize=12;html=1;endArrow=ERmany;rounded=0;" parent="1" source="zMIq4uqTZYRZhNaHx9U6-5" target="zMIq4uqTZYRZhNaHx9U6-7" edge="1">
          <mxGeometry width="100" height="100" relative="1" as="geometry">
            <mxPoint x="610" y="130" as="sourcePoint" />
            <mxPoint x="710" y="30" as="targetPoint" />
          </mxGeometry>
        </mxCell>
        <mxCell id="zMIq4uqTZYRZhNaHx9U6-31" value="" style="edgeStyle=entityRelationEdgeStyle;fontSize=12;html=1;endArrow=ERmandOne;rounded=0;" parent="1" source="zMIq4uqTZYRZhNaHx9U6-3" target="zMIq4uqTZYRZhNaHx9U6-6" edge="1">
          <mxGeometry width="100" height="100" relative="1" as="geometry">
            <mxPoint x="915.5200000000001" y="247.94000000000005" as="sourcePoint" />
            <mxPoint x="850.0000000000006" y="170" as="targetPoint" />
          </mxGeometry>
        </mxCell>
        <mxCell id="zMIq4uqTZYRZhNaHx9U6-32" value="HISTORIALES" style="swimlane;childLayout=stackLayout;horizontal=1;startSize=50;horizontalStack=0;rounded=1;fontSize=14;fontStyle=0;strokeWidth=2;resizeParent=0;resizeLast=1;shadow=0;dashed=0;align=center;arcSize=4;whiteSpace=wrap;html=1;" parent="1" vertex="1">
          <mxGeometry x="-1410" y="630" width="160" height="120" as="geometry" />
        </mxCell>
      </root>
    </mxGraphModel>
  </diagram>
</mxfile>
